<?xml version="1.0" standalone="no"?>
<!DOCTYPE svg PUBLIC "-//W3C//DTD SVG 20010904//EN"
 "http://www.w3.org/TR/2001/REC-SVG-20010904/DTD/svg10.dtd">
<svg version="1.0" xmlns="http://www.w3.org/2000/svg"
 width="500.000000pt" height="500.000000pt" viewBox="0 0 500.000000 500.000000"
 preserveAspectRatio="xMidYMid meet">

<g transform="translate(0.000000,500.000000) scale(0.100000,-0.100000)"
fill="#344ab8" stroke="none">
<path d="M2235 4685 c-1005 -122 -1802 -925 -1920 -1933 -49 -414 25 -841 210
-1217 109 -222 230 -393 408 -574 183 -186 374 -325 601 -435 772 -377 1683
-273 2351 267 113 91 288 274 376 392 496 667 577 1536 213 2281 -171 352
-440 656 -774 876 -205 135 -496 258 -731 308 -229 49 -508 62 -734 35z m145
-600 l0 -365 -421 0 c-385 0 -421 1 -415 16 15 40 121 209 175 281 115 153
293 304 437 370 65 30 167 61 202 62 l22 1 0 -365z m393 330 c133 -47 263
-134 383 -257 74 -76 175 -202 200 -250 13 -25 12 -29 -17 -60 -16 -18 -42
-54 -56 -80 l-26 -48 -319 0 -318 0 0 366 0 367 41 -7 c23 -4 73 -18 112 -31z
m-1185 -193 c-7 -9 -38 -51 -69 -92 -76 -103 -128 -188 -188 -308 l-51 -102
-155 0 c-107 0 -155 3 -155 11 0 21 284 294 367 352 91 65 241 157 255 157 5
0 3 -8 -4 -18z m1931 -44 c140 -85 287 -205 410 -334 55 -59 101 -111 101
-115 0 -5 -17 -9 -37 -9 -36 0 -40 4 -63 51 -48 97 -171 180 -288 194 -54 6
-59 9 -80 46 -12 21 -51 77 -87 124 -76 101 -78 105 -68 105 4 0 54 -28 112
-62z m-2360 -796 c-59 -204 -101 -443 -115 -654 l-7 -108 -249 0 -248 0 6 58
c18 179 59 356 120 519 35 94 105 244 126 271 8 9 61 12 203 12 l193 0 -29
-98z m1219 -112 l-3 -211 -65 -23 c-160 -56 -290 -185 -346 -345 l-23 -66
-333 -3 -333 -2 7 112 c15 216 57 444 119 646 l32 102 474 0 473 0 -2 -210z
m906 155 c56 -108 174 -185 293 -193 63 -4 63 -4 72 -41 31 -118 71 -407 71
-514 l0 -57 -331 2 -332 3 -12 40 c-50 168 -189 313 -354 371 l-66 23 -3 211
-2 210 317 0 318 0 29 -55z m973 -52 c89 -178 159 -403 183 -593 6 -47 13
-102 15 -122 l5 -38 -248 0 -248 0 -12 143 c-13 158 -41 336 -73 470 l-21 88
29 37 c17 21 40 57 52 80 l22 43 122 -3 122 -3 52 -102z m-3213 -1100 c8 -127
39 -344 65 -460 l19 -83 -35 -37 c-31 -33 -67 -98 -87 -156 -5 -16 -17 -17
-108 -15 l-103 3 -37 70 c-106 199 -186 474 -212 728 l-6 57 248 0 249 0 7
-107z m911 62 c50 -168 189 -313 354 -371 l66 -23 3 -211 2 -210 -328 0 -328
0 -11 43 c-33 123 -186 240 -325 249 -42 2 -40 -2 -62 113 -22 117 -36 226
-44 348 l-7 107 334 -2 334 -3 12 -40z m1762 -64 c-12 -205 -55 -441 -118
-647 l-32 -104 -474 0 -473 0 2 210 3 211 65 23 c178 62 304 200 364 399 5 16
30 17 337 17 l332 0 -6 -109z m738 72 c-2 -21 -9 -76 -15 -123 -24 -190 -94
-415 -183 -593 l-52 -102 -199 -3 c-186 -2 -198 -1 -191 15 57 149 125 503
141 741 l7 102 249 0 248 0 -5 -37z m-3395 -1104 c51 -82 165 -151 271 -164
l56 -6 57 -89 c31 -48 79 -116 106 -151 28 -34 48 -64 45 -67 -10 -10 -219
124 -320 205 -96 77 -305 286 -305 304 0 5 15 9 33 9 27 0 36 -7 57 -41z
m1320 -324 c0 -424 16 -384 -133 -334 -145 48 -251 115 -381 238 -74 71 -171
191 -230 284 l-37 58 31 32 c17 18 39 44 48 60 l16 27 343 0 343 0 0 -365z
m1080 360 c0 -2 -25 -48 -56 -102 -174 -303 -400 -509 -650 -592 -150 -50
-134 -90 -134 334 l0 365 420 0 c231 0 420 -2 420 -5z m570 -5 c0 -21 -260
-272 -355 -342 -100 -73 -263 -173 -271 -166 -2 3 24 40 57 83 75 99 153 224
213 344 l46 91 155 0 c96 0 155 -4 155 -10z"/>
</g>
</svg>
